<svg width="80" height="80" viewBox="0 0 80 80" fill="none" xmlns="http://www.w3.org/2000/svg">
<g id="firewallshield_114494 1">
<g id="Group">
<g id="Vector">
<path d="M40.043 67.13L39.7511 67.081C26.7897 64.0239 17.7333 52.5803 17.7333 39.2531V20.6675L18.5555 20.6304C26.1303 20.2905 33.3712 17.7664 39.4946 13.3302L39.9999 12.9644L40.5053 13.3302C46.6321 17.7672 53.8721 20.2912 61.4435 20.6304L62.2656 20.6675V39.253C62.2656 52.5794 53.2092 64.023 40.2427 67.0826L40.043 67.13ZM19.4552 22.3058V39.2538C19.4552 51.7263 27.8952 62.4432 39.9991 65.371C52.1091 62.4355 60.544 51.7217 60.544 39.2538V22.3058C53.1413 21.8237 46.0674 19.3384 39.9999 15.0847C33.9369 19.3384 26.8613 21.8237 19.4552 22.3058Z" fill="#F30100"/>
<path d="M40.043 67.13L39.7511 67.081C26.7897 64.0239 17.7333 52.5803 17.7333 39.2531V20.6675L18.5555 20.6304C26.1303 20.2905 33.3712 17.7664 39.4946 13.3302L39.9999 12.9644L40.5053 13.3302C46.6321 17.7672 53.8721 20.2912 61.4435 20.6304L62.2656 20.6675V39.253C62.2656 52.5794 53.2092 64.023 40.2427 67.0826L40.043 67.13ZM19.4552 22.3058V39.2538C19.4552 51.7263 27.8952 62.4432 39.9991 65.371C52.1091 62.4355 60.544 51.7217 60.544 39.2538V22.3058C53.1413 21.8237 46.0674 19.3384 39.9999 15.0847C33.9369 19.3384 26.8613 21.8237 19.4552 22.3058Z" fill="url(#paint0_linear_102_7873)"/>
</g>
<g id="Vector_2">
<path d="M40.0606 78L39.6542 77.9312C21.6088 73.6418 9 57.5853 9 38.8858V12.8083L10.1446 12.7563C20.6906 12.2793 30.7717 8.73771 39.2971 2.51329L40.0006 2L40.7042 2.51329C49.2342 8.73883 59.3141 12.2803 69.8554 12.7563L71 12.8083V38.8857C71 57.584 58.3912 73.6405 40.3386 77.9334L40.0606 78ZM11.3972 15.1069V38.8868C11.3972 56.3871 23.1478 71.424 39.9995 75.532C56.8595 71.4131 68.603 56.3805 68.603 38.8868V15.1069C58.2967 14.4306 48.448 10.9434 40.0006 4.97513C31.5593 10.9434 21.7084 14.4306 11.3972 15.1069Z" fill="#F30100"/>
<path d="M40.0606 78L39.6542 77.9312C21.6088 73.6418 9 57.5853 9 38.8858V12.8083L10.1446 12.7563C20.6906 12.2793 30.7717 8.73771 39.2971 2.51329L40.0006 2L40.7042 2.51329C49.2342 8.73883 59.3141 12.2803 69.8554 12.7563L71 12.8083V38.8857C71 57.584 58.3912 73.6405 40.3386 77.9334L40.0606 78ZM11.3972 15.1069V38.8868C11.3972 56.3871 23.1478 71.424 39.9995 75.532C56.8595 71.4131 68.603 56.3805 68.603 38.8868V15.1069C58.2967 14.4306 48.448 10.9434 40.0006 4.97513C31.5593 10.9434 21.7084 14.4306 11.3972 15.1069Z" fill="url(#paint1_linear_102_7873)"/>
</g>
<g id="Vector_3">
<path d="M45.7611 37.5194V34.3127C45.7611 31.2006 43.2446 28.6636 40.155 28.6636H39.845C36.7553 28.6636 34.2442 31.2006 34.2442 34.3127V37.5194H32.1962V51.6206H47.8021V37.5194H45.7611ZM36.4085 34.3118C36.4085 32.405 37.9512 30.8528 39.8451 30.8528H40.1551C42.0534 30.8528 43.5899 32.4049 43.5899 34.3118V37.5186H36.4085V34.3118Z" fill="#F30100"/>
<path d="M45.7611 37.5194V34.3127C45.7611 31.2006 43.2446 28.6636 40.155 28.6636H39.845C36.7553 28.6636 34.2442 31.2006 34.2442 34.3127V37.5194H32.1962V51.6206H47.8021V37.5194H45.7611ZM36.4085 34.3118C36.4085 32.405 37.9512 30.8528 39.8451 30.8528H40.1551C42.0534 30.8528 43.5899 32.4049 43.5899 34.3118V37.5186H36.4085V34.3118Z" fill="url(#paint2_linear_102_7873)"/>
</g>
</g>
</g>
<defs>
<linearGradient id="paint0_linear_102_7873" x1="39.9995" y1="12.9644" x2="39.9995" y2="67.13" gradientUnits="userSpaceOnUse">
<stop stop-color="#FF0606"/>
<stop offset="1" stop-color="#B00000"/>
</linearGradient>
<linearGradient id="paint1_linear_102_7873" x1="40" y1="2" x2="40" y2="78" gradientUnits="userSpaceOnUse">
<stop stop-color="#FF0606"/>
<stop offset="1" stop-color="#B00000"/>
</linearGradient>
<linearGradient id="paint2_linear_102_7873" x1="39.9991" y1="28.6636" x2="39.9991" y2="51.6206" gradientUnits="userSpaceOnUse">
<stop stop-color="#FF0606"/>
<stop offset="1" stop-color="#B00000"/>
</linearGradient>
</defs>
</svg>
