<svg width="80" height="80" viewBox="0 0 80 80" fill="none" xmlns="http://www.w3.org/2000/svg">
<g id="high_level_speed_time_icon_208783 1">
<g id="Group 26">
<g id="Vector">
<path d="M10.1814 40C10.928 33.2172 13.9386 27.1152 18.4417 22.4655L23.5357 27.5592L25.8927 25.2022L20.8914 20.2012C25.681 16.2417 31.722 13.7406 38.3334 13.3788V21.6667H41.6667V13.3788C48.278 13.7406 54.3192 16.2417 59.1089 20.2013L54.3097 24.9998L56.6665 27.357L61.5585 22.4657C66.0615 27.1153 69.072 33.2172 69.8187 40H62.8072V43.3333H70C69.9959 50.5672 67.4299 57.2002 63.1567 62.3782L57.456 56.6778L55.099 59.0348L60.8944 64.83L60.8732 64.8505L63.192 67.2452C69.4439 61.1913 73.3334 52.706 73.3334 43.3153C73.3334 24.915 58.4087 10 40 10C21.5914 10 6.66669 24.915 6.66669 43.3153C6.66669 52.4568 10.3527 60.741 16.3162 66.7588L18.6839 64.4125C18.6734 64.402 18.663 64.3915 18.6525 64.3808L23.6612 59.372L21.3042 57.015L16.4403 61.879C12.4094 56.777 10.0041 50.337 10 43.3333H16.7545V40H10.1814Z" fill="#F30100"/>
<path d="M10.1814 40C10.928 33.2172 13.9386 27.1152 18.4417 22.4655L23.5357 27.5592L25.8927 25.2022L20.8914 20.2012C25.681 16.2417 31.722 13.7406 38.3334 13.3788V21.6667H41.6667V13.3788C48.278 13.7406 54.3192 16.2417 59.1089 20.2013L54.3097 24.9998L56.6665 27.357L61.5585 22.4657C66.0615 27.1153 69.072 33.2172 69.8187 40H62.8072V43.3333H70C69.9959 50.5672 67.4299 57.2002 63.1567 62.3782L57.456 56.6778L55.099 59.0348L60.8944 64.83L60.8732 64.8505L63.192 67.2452C69.4439 61.1913 73.3334 52.706 73.3334 43.3153C73.3334 24.915 58.4087 10 40 10C21.5914 10 6.66669 24.915 6.66669 43.3153C6.66669 52.4568 10.3527 60.741 16.3162 66.7588L18.6839 64.4125C18.6734 64.402 18.663 64.3915 18.6525 64.3808L23.6612 59.372L21.3042 57.015L16.4403 61.879C12.4094 56.777 10.0041 50.337 10 43.3333H16.7545V40H10.1814Z" fill="url(#paint0_linear_102_7862)"/>
</g>
<g id="Vector_2">
<path d="M35.8645 49.8489C35.221 49.9724 34.6447 50.3267 34.2438 50.845L31.513 54.8939C31.209 56.9174 31.4246 57.7224 32.6208 59.0282L37.0101 61.169C37.6165 61.4177 38.2926 61.4362 38.9118 61.2215L60.1045 51.4344C63.257 50.3407 62.4126 47.0729 59.1358 47.702L35.8645 49.8489Z" fill="#F30100"/>
<path d="M35.8645 49.8489C35.221 49.9724 34.6447 50.3267 34.2438 50.845L31.513 54.8939C31.209 56.9174 31.4246 57.7224 32.6208 59.0282L37.0101 61.169C37.6165 61.4177 38.2926 61.4362 38.9118 61.2215L60.1045 51.4344C63.257 50.3407 62.4126 47.0729 59.1358 47.702L35.8645 49.8489Z" fill="url(#paint1_linear_102_7862)"/>
</g>
</g>
<rect x="0.5" y="0.5" width="79" height="79" stroke="black"/>
</g>
<defs>
<linearGradient id="paint0_linear_102_7862" x1="40" y1="10" x2="40" y2="67.2452" gradientUnits="userSpaceOnUse">
<stop stop-color="#FF0606"/>
<stop offset="1" stop-color="#B00000"/>
</linearGradient>
<linearGradient id="paint1_linear_102_7862" x1="46.7339" y1="47.6223" x2="46.7339" y2="61.3701" gradientUnits="userSpaceOnUse">
<stop stop-color="#FF0606"/>
<stop offset="1" stop-color="#B00000"/>
</linearGradient>
</defs>
</svg>
