<svg width="741" height="697" viewBox="0 0 741 697" fill="none" xmlns="http://www.w3.org/2000/svg">
<path d="M179.028 74.1543L184.31 80.2908L192.408 79.3854L188.233 86.377L191.553 93.8213L183.656 91.9603L177.62 97.4429L176.916 89.2944L169.874 85.2704L177.369 82.1016L179.028 74.1543Z" fill="#353B52"/>
<path d="M731.064 233.352L731.718 238.08L736.043 240.192L731.718 242.355L731.064 247.083L727.694 243.663L722.966 244.468L725.179 240.192L722.966 235.967L727.694 236.772L731.064 233.352Z" fill="#353B52"/>
<path d="M318.609 16.9136L319.313 21.692L323.589 23.8046L319.313 25.9172L318.609 30.6956L315.239 27.2752L310.511 28.08L312.774 23.8046L310.511 19.5794L315.239 20.3842L318.609 16.9136Z" fill="#353B52"/>
<path d="M448.583 200.254L449.287 204.983L453.562 207.145L449.287 209.258L448.583 213.986L445.263 210.566L440.484 211.371L442.748 207.145L440.484 202.87L445.213 203.675L448.583 200.254Z" fill="#353B52"/>
<path d="M218.463 410.657L219.167 415.385L223.493 417.548L219.167 419.66L218.513 424.388L215.143 420.968L210.415 421.773L212.628 417.548L210.415 413.272L215.143 414.077L218.463 410.657Z" fill="#353B52"/>
<path d="M492.293 0.515625L493.45 8.56352L500.793 12.1348L493.5 15.7563L492.293 23.8042L486.609 17.9695L478.611 19.3779L482.384 12.1348L478.611 4.94198L486.609 6.30005L492.293 0.515625Z" fill="#353B52"/>
<path d="M282.394 413.977L283.601 422.024L290.894 425.646L283.601 429.268L282.444 437.315L276.76 431.481L268.712 432.839L272.485 425.646L268.712 418.453L276.71 419.811L282.394 413.977Z" fill="#353B52"/>
<path d="M14.6501 223.794L15.807 231.842L23.1004 235.464L15.807 239.035L14.6501 247.083L8.96629 241.299L0.918396 242.657L4.69085 235.464L0.918396 228.271L8.96629 229.629L14.6501 223.794Z" fill="#353B52"/>
<path d="M202.166 612.105L203.323 620.153L210.667 623.775L203.323 627.346L202.166 635.444L196.482 629.61L188.485 630.968L192.257 623.775L188.485 616.582L196.482 617.94L202.166 612.105Z" fill="#353B52"/>
<path d="M86.7794 656.419L87.9363 664.467L95.2297 668.038L87.9363 671.66L86.7794 679.708L81.0956 673.873L73.0477 675.281L76.8704 668.038L73.0477 660.845L81.0956 662.203L86.7794 656.419Z" fill="#353B52"/>
<path d="M731.667 509.193L732.824 517.241L740.117 520.862L732.824 524.434L731.667 532.532L725.983 526.697L717.986 528.055L721.758 520.862L717.935 513.67L725.983 515.028L731.667 509.193Z" fill="#353B52"/>
<path d="M628.855 673.32L630.063 681.368L637.356 684.989L630.063 688.56L628.906 696.608L623.222 690.824L615.174 692.182L618.946 684.989L615.174 677.746L623.222 679.155L628.855 673.32Z" fill="#353B52"/>
<path d="M711.9 319.263L713.057 327.311L720.35 330.882L713.057 334.503L711.9 342.551L706.216 336.717L698.168 338.125L701.991 330.882L698.168 323.689L706.216 325.047L711.9 319.263Z" fill="#353B52"/>
<path d="M646.712 367.248L647.869 375.346L655.162 378.917L647.869 382.539L646.712 390.587L641.028 384.752L632.98 386.161L636.803 378.917L632.98 371.725L641.028 373.083L646.712 367.248Z" fill="#353B52"/>
<path d="M515.632 426.752L516.839 434.8L524.132 438.372L516.839 441.993L515.682 450.041L509.948 444.206L501.95 445.615L505.723 438.422L501.95 431.179L509.948 432.587L515.632 426.752Z" fill="#353B52"/>
</svg>
