<svg width="1009" height="818" viewBox="0 0 1009 818" fill="none" xmlns="http://www.w3.org/2000/svg">
<path d="M777.758 0.290848L770.492 8.69407L759.435 7.43042L765.184 16.9709L760.635 27.1433L771.44 24.5528L779.653 32.0715L780.601 21.0146L790.268 15.5178L780.032 11.1582L777.758 0.290848Z" fill="#353B52"/>
<path d="M152.128 36.9997L151.18 43.5074L145.304 46.4138L151.18 49.3202L152.128 55.828L156.74 51.0893L163.185 52.2266L160.152 46.4138L163.185 40.6011L156.74 41.7383L152.128 36.9997Z" fill="#353B52"/>
<path d="M561.296 224.145L560.348 230.59L554.472 233.496L560.348 236.403L561.296 242.91L565.845 238.235L572.289 239.309L569.257 233.496L572.353 227.683L565.845 228.821L561.296 224.145Z" fill="#353B52"/>
<path d="M240.52 104.794L239.572 111.239L233.633 114.145L239.572 117.052L240.457 123.559L245.069 118.884L251.513 119.958L248.481 114.145L251.513 108.396L245.069 109.47L240.52 104.794Z" fill="#353B52"/>
<path d="M711.416 426.391L710.469 432.836L704.593 435.742L710.469 438.649L711.416 445.157L715.966 440.481L722.41 441.555L719.377 435.742L722.473 429.93L715.966 431.067L711.416 426.391Z" fill="#353B52"/>
<path d="M305.913 348.74L304.271 359.734L294.288 364.662L304.271 369.591L305.85 380.584L313.622 372.623L324.615 374.519L319.434 364.662L324.615 354.806L313.622 356.701L305.913 348.74Z" fill="#353B52"/>
<path d="M680.457 501.262L678.878 512.256L668.895 517.184L678.878 522.112L680.457 533.106L688.229 525.145L699.159 527.04L694.041 517.184L699.222 507.328L688.229 509.223L680.457 501.262Z" fill="#353B52"/>
<path d="M989.923 171.072L988.344 182.066L978.361 186.994L988.344 191.922L989.923 202.916L997.695 194.955L1008.63 196.851L1003.44 186.994L1008.63 177.138L997.695 179.033L989.923 171.072Z" fill="#353B52"/>
<path d="M504.242 317.402L502.663 328.396L492.68 333.324L502.663 338.252L504.242 349.246L512.014 341.285L522.944 343.18L517.826 333.324L523.007 323.468L512.014 325.363L504.242 317.402Z" fill="#353B52"/>
<path d="M891.359 762.141L889.78 773.135L879.797 778.063L889.78 782.992L891.359 793.985L899.131 786.024L910.061 787.92L904.943 778.063L910.124 768.207L899.131 770.102L891.359 762.141Z" fill="#353B52"/>
<path d="M5.86119 563.307L7.88299 574.238L0.0483837 582.135L11.0421 583.525L16.0967 593.445L20.8985 583.399L31.8922 581.63L23.8049 573.985L25.5108 562.991L15.7808 568.362L5.86119 563.307Z" fill="#353B52"/>
<path d="M150.675 785.266L149.095 796.26L139.112 801.188L149.032 806.116L150.675 817.11L158.446 809.149L169.377 811.045L164.196 801.188L169.377 791.332L158.446 793.227L150.675 785.266Z" fill="#353B52"/>
<path d="M37.2628 301.48L35.6201 312.474L25.7005 317.402L35.6201 322.33L37.2628 333.324L45.0343 325.363L55.9647 327.259L50.7838 317.402L55.9647 307.546L45.0343 309.441L37.2628 301.48Z" fill="#353B52"/>
</svg>
