<svg width="18" height="19" viewBox="0 0 18 19" fill="none" xmlns="http://www.w3.org/2000/svg">
<path d="M15.16 3.66774C15.8026 3.66774 15.9717 4.16441 15.7816 5.33059C15.5641 6.66415 14.9375 11.0794 14.4378 13.8278C14.2466 14.8796 13.9019 15.333 13.4002 15.333C13.1244 15.333 12.8014 15.196 12.4304 14.9457C11.9276 14.6063 9.38928 12.8909 8.83811 12.488C8.33532 12.121 7.64169 11.6792 8.51167 10.8096C8.82135 10.4998 10.8504 8.51968 12.4312 6.97866C12.5999 6.81401 12.4586 6.56295 12.2712 6.56295C12.2285 6.56295 12.1832 6.57618 12.139 6.60615C10.0083 8.05025 7.05357 10.0545 6.67762 10.3157C6.30166 10.5765 5.93523 10.7438 5.44691 10.7438C5.19742 10.7438 4.91593 10.7002 4.58493 10.6029C3.84483 10.3857 3.12225 10.1269 2.84076 10.028C1.75709 9.64811 2.0142 9.15571 3.06664 8.68239C7.2863 6.78559 12.7466 4.4727 13.5004 4.15274C14.2348 3.84095 14.7802 3.66774 15.16 3.66774ZM15.16 2.5C14.6389 2.5 14.0116 2.67166 13.0627 3.07375L12.9488 3.12201C8.89791 4.84092 5.22485 6.43605 2.60651 7.61313C2.19741 7.79724 0.952997 8.35659 1.00137 9.52666C1.02194 10.0315 1.29391 10.7197 2.47014 11.1319L2.55699 11.1623C2.88533 11.2779 3.56905 11.5188 4.26992 11.7247C4.69653 11.8501 5.08201 11.9108 5.44729 11.9108C6.08112 11.9108 6.57211 11.7259 6.95606 11.5106C6.95415 11.576 6.95568 11.6418 6.96063 11.708C7.02995 12.6079 7.71101 13.1015 8.11782 13.3965L8.17457 13.4378C8.77526 13.8769 11.4938 15.7122 11.8016 15.9196C12.3809 16.3104 12.9039 16.5 13.401 16.5C14.1826 16.5 15.1924 16.0734 15.5618 14.0407C15.9127 12.1128 16.3179 9.41962 16.6139 7.45315C16.74 6.61394 16.8436 5.92575 16.9095 5.5221C17.0424 4.70702 17.1034 3.78373 16.5484 3.11462C16.3153 2.83436 15.8856 2.5 15.16 2.5Z" fill="white"/>
</svg>
