<svg width="40" height="40" viewBox="0 0 40 40" fill="none" xmlns="http://www.w3.org/2000/svg">
<path d="M13.8929 13.5C13.1256 13.5 12.3898 13.8017 11.8473 14.3387C11.3048 14.8758 11 15.6042 11 16.3636V24.6364C11 25.3958 11.3048 26.1242 11.8473 26.6613C12.3898 27.1983 13.1256 27.5 13.8929 27.5H26.1071C26.8744 27.5 27.6102 27.1983 28.1527 26.6613C28.6952 26.1242 29 25.3958 29 24.6364V16.3636C29 15.6042 28.6952 14.8758 28.1527 14.3387C27.6102 13.8017 26.8744 13.5 26.1071 13.5H13.8929ZM27.7143 16.9383L20 21.0498L12.2857 16.9383V16.3636C12.2857 15.9417 12.455 15.537 12.7564 15.2387C13.0578 14.9403 13.4666 14.7727 13.8929 14.7727H26.1071C26.5334 14.7727 26.9422 14.9403 27.2436 15.2387C27.545 15.537 27.7143 15.9417 27.7143 16.3636V16.9383ZM12.2857 18.3835L19.6953 22.3334C19.7889 22.3833 19.8936 22.4094 20 22.4094C20.1064 22.4094 20.2111 22.3833 20.3047 22.3334L27.7143 18.3835V24.6364C27.7143 25.0583 27.545 25.463 27.2436 25.7613C26.9422 26.0597 26.5334 26.2273 26.1071 26.2273H13.8929C13.4666 26.2273 13.0578 26.0597 12.7564 25.7613C12.455 25.463 12.2857 25.0583 12.2857 24.6364V18.3835Z" fill="white"/>
</svg>
