<svg width="28" height="28" viewBox="0 0 28 28" xmlns="http://www.w3.org/2000/svg">
<g>
<path d="M4.36173 2.29288C3.97119 1.90237 3.338 1.90237 2.94746 2.29288L2.29291 2.94737C1.90237 3.33788 1.90236 3.97101 2.29291 4.36152L11.93 13.9978L2.29308 23.6338C1.90254 24.0243 1.90254 24.6575 2.29308 25.048L2.94763 25.7025C3.33817 26.093 3.97137 26.093 4.36191 25.7025L13.9988 16.0664L23.6357 25.7024C24.0263 26.0929 24.6594 26.0929 25.05 25.7024L25.7045 25.0479C26.0951 24.6574 26.0951 24.0243 25.7045 23.6338L16.0676 13.9978L25.7047 4.36155C26.0953 3.97104 26.0953 3.3379 25.7047 2.9474L25.0502 2.29291C24.6596 1.9024 24.0264 1.9024 23.6359 2.29291L13.9988 11.9291L4.36173 2.29288Z" fill="grey" />
</g>
</svg>
