<svg width="50" height="30" viewBox="0 0 50 30" fill="none" xmlns="http://www.w3.org/2000/svg">
<g id="mastercard 1" clip-path="url(#clip0_8_2389)">
<path id="Vector" d="M31.3974 3.14258H18.5729V26.2487H31.3974V3.14258Z" fill="#FF5F00"/>
<path id="Vector_2" d="M19.3892 14.6948C19.3873 12.4716 19.89 10.2769 20.8593 8.27605C21.8286 6.27517 23.2393 4.52038 24.9851 3.14381C23.1429 1.69534 20.9809 0.708522 18.6797 0.265692C16.3784 -0.177134 14.0046 -0.0631133 11.7563 0.598237C9.50812 1.25958 7.45067 2.44908 5.75575 4.06745C4.06081 5.68582 2.77755 7.68609 2.01306 9.90137C1.24856 12.1167 1.02501 14.4827 1.36106 16.8019C1.69711 19.1212 2.58302 21.3265 3.94484 23.2336C5.30667 25.1408 7.10493 26.6946 9.1895 27.7653C11.2741 28.8361 13.5845 29.3927 15.928 29.3887C19.2151 29.393 22.4071 28.2854 24.9851 26.2459C23.2393 24.8693 21.8286 23.1145 20.8593 21.1137C19.89 19.1128 19.3873 16.9181 19.3892 14.6948Z" fill="#EB001B"/>
<path id="Vector_3" d="M47.2953 23.7994V23.326H47.4871V23.228H46.9891V23.326H47.181V23.7994H47.2953ZM48.2381 23.7994V23.228H48.0912L47.9197 23.6361L47.7483 23.228H47.5973V23.7994H47.7034V23.3668L47.8626 23.7382H47.9728L48.132 23.3668V23.7994H48.2381Z" fill="#F79E1B"/>
<path id="Vector_4" d="M48.6953 14.6941C48.7046 17.4479 47.9373 20.1484 46.4814 22.4859C45.0255 24.8233 42.9401 26.7029 40.4645 27.9089C37.9889 29.115 35.2234 29.5986 32.4854 29.3044C29.7474 29.0101 27.1479 27.9498 24.9851 26.2452C26.7298 24.8674 28.1396 23.1124 29.109 21.1119C30.0783 19.1113 30.5819 16.9171 30.5819 14.6941C30.5819 12.4711 30.0783 10.277 29.109 8.27639C28.1396 6.27582 26.7298 4.5208 24.9851 3.14309C27.1479 1.43848 29.7474 0.378178 32.4854 0.0838806C35.2234 -0.210416 37.9889 0.273214 40.4645 1.47927C42.9401 2.68532 45.0255 4.56493 46.4814 6.90239C47.9373 9.23982 48.7046 11.9404 48.6953 14.6941Z" fill="#F79E1B"/>
</g>
<defs>
<clipPath id="clip0_8_2389">
<rect width="48.3673" height="30" fill="white" transform="translate(0.75)"/>
</clipPath>
</defs>
</svg>
