<svg width="1920" height="911" viewBox="0 0 1920 911" fill="none" xmlns="http://www.w3.org/2000/svg">
<path d="M1839.76 93.291L1832.49 101.694L1821.43 100.431L1827.18 109.971L1822.64 120.143L1833.44 117.553L1841.65 125.072L1842.6 114.015L1852.27 108.518L1842.03 104.158L1839.76 93.291Z" fill="#353B52"/>
<path d="M1214.13 130L1213.18 136.508L1207.3 139.414L1213.18 142.32L1214.13 148.828L1218.74 144.089L1225.18 145.227L1222.15 139.414L1225.18 133.601L1218.74 134.738L1214.13 130Z" fill="#353B52"/>
<path d="M1623.3 317.146L1622.35 323.59L1616.47 326.496L1622.35 329.403L1623.3 335.911L1627.84 331.235L1634.29 332.309L1631.26 326.496L1634.35 320.684L1627.84 321.821L1623.3 317.146Z" fill="#353B52"/>
<path d="M1302.52 197.794L1301.57 204.239L1295.63 207.145L1301.57 210.052L1302.46 216.559L1307.07 211.884L1313.51 212.958L1310.48 207.145L1313.51 201.396L1307.07 202.47L1302.52 197.794Z" fill="#353B52"/>
<path d="M1773.42 519.392L1772.47 525.836L1766.59 528.743L1772.47 531.649L1773.42 538.157L1777.97 533.481L1784.41 534.555L1781.38 528.743L1784.47 522.93L1777.97 524.067L1773.42 519.392Z" fill="#353B52"/>
<path d="M1367.91 441.741L1366.27 452.734L1356.29 457.663L1366.27 462.591L1367.85 473.585L1375.62 465.624L1386.61 467.519L1381.43 457.663L1386.61 447.806L1375.62 449.702L1367.91 441.741Z" fill="#353B52"/>
<path d="M1742.46 594.262L1740.88 605.256L1730.89 610.184L1740.88 615.112L1742.46 626.106L1750.23 618.145L1761.16 620.04L1756.04 610.184L1761.22 600.328L1750.23 602.223L1742.46 594.262Z" fill="#353B52"/>
<path d="M1566.24 410.402L1564.66 421.396L1554.68 426.324L1564.66 431.252L1566.24 442.246L1574.01 434.285L1584.94 436.181L1579.83 426.324L1585.01 416.468L1574.01 418.363L1566.24 410.402Z" fill="#353B52"/>
<path d="M1067.86 656.307L1069.88 667.238L1062.05 675.135L1073.04 676.525L1078.1 686.445L1082.9 676.399L1093.89 674.63L1085.8 666.985L1087.51 655.991L1077.78 661.362L1067.86 656.307Z" fill="#353B52"/>
<path d="M1212.67 878.266L1211.1 889.26L1201.11 894.188L1211.03 899.116L1212.67 910.11L1220.45 902.149L1231.38 904.044L1226.2 894.188L1231.38 884.332L1220.45 886.227L1212.67 878.266Z" fill="#353B52"/>
<path d="M1099.26 394.48L1097.62 405.474L1087.7 410.402L1097.62 415.331L1099.26 426.324L1107.03 418.363L1117.96 420.259L1112.78 410.402L1117.96 400.546L1107.03 402.441L1099.26 394.48Z" fill="#353B52"/>
<path d="M643.757 0.290771L636.492 8.69399L625.435 7.43035L631.184 16.9709L626.635 27.1432L637.439 24.5527L645.653 32.0714L646.601 21.0145L656.268 15.5177L646.032 11.1581L643.757 0.290771Z" fill="#353B52"/>
<path d="M18.1276 36.9998L17.1798 43.5075L11.3039 46.4139L17.1798 49.3203L18.1276 55.828L22.7398 51.0894L29.1844 52.2267L26.1517 46.4139L29.1844 40.6011L22.7398 41.7384L18.1276 36.9998Z" fill="#353B52"/>
<path d="M427.295 224.145L426.348 230.59L420.472 233.496L426.348 236.403L427.295 242.91L431.844 238.235L438.289 239.309L435.256 233.496L438.352 227.683L431.844 228.821L427.295 224.145Z" fill="#353B52"/>
<path d="M106.519 104.794L105.572 111.239L99.6325 114.145L105.572 117.052L106.456 123.559L111.068 118.884L117.513 119.958L114.48 114.145L117.513 108.396L111.068 109.47L106.519 104.794Z" fill="#353B52"/>
<path d="M577.416 426.392L576.468 432.836L570.592 435.743L576.468 438.649L577.416 445.157L581.965 440.481L588.41 441.555L585.377 435.743L588.473 429.93L581.965 431.067L577.416 426.392Z" fill="#353B52"/>
<path d="M171.913 348.741L170.27 359.734L160.287 364.663L170.27 369.591L171.85 380.585L179.621 372.624L190.615 374.519L185.434 364.663L190.615 354.806L179.621 356.702L171.913 348.741Z" fill="#353B52"/>
<path d="M546.457 501.262L544.877 512.256L534.895 517.184L544.877 522.112L546.457 533.106L554.228 525.145L565.159 527.04L560.041 517.184L565.222 507.328L554.228 509.223L546.457 501.262Z" fill="#353B52"/>
<path d="M855.923 171.072L854.344 182.066L844.361 186.994L854.344 191.922L855.923 202.916L863.694 194.955L874.625 196.851L869.444 186.994L874.625 177.138L863.694 179.033L855.923 171.072Z" fill="#353B52"/>
<path d="M370.242 317.402L368.662 328.396L358.68 333.324L368.662 338.252L370.242 349.246L378.013 341.285L388.944 343.181L383.826 333.324L389.007 323.468L378.013 325.363L370.242 317.402Z" fill="#353B52"/>
<path d="M757.359 762.142L755.779 773.135L745.797 778.063L755.779 782.992L757.359 793.985L765.13 786.024L776.061 787.92L770.943 778.063L776.124 768.207L765.13 770.103L757.359 762.142Z" fill="#353B52"/>
<path d="M16.6744 785.266L15.0948 796.26L5.11201 801.188L15.0317 806.116L16.6744 817.11L24.4458 809.149L35.3763 811.044L30.1954 801.188L35.3763 791.332L24.4458 793.227L16.6744 785.266Z" fill="#353B52"/>
</svg>
