<svg width="92" height="28" viewBox="0 0 92 28" fill="none" xmlns="http://www.w3.org/2000/svg">
<g id="mir 1" clip-path="url(#clip0_8_2394)">
<path id="Vector" d="M20.2951 4.53219L16.8945 16.3121H16.3128L12.9122 4.53219C12.3305 2.53882 10.5048 1.1665 8.41836 1.1665H0.263123V26.8098H8.42839V11.6542H9.01021L13.6847 26.8098H19.5227L24.1871 11.6542H24.769V26.8098H32.9342V1.1665H24.779C22.7026 1.1665 20.877 2.53882 20.2951 4.53219ZM65.5049 26.8098H73.7205V19.227H81.9864C86.3095 19.227 89.9909 16.7829 91.4154 13.3471H65.5049V26.8098ZM50.95 3.87108L45.2022 16.3221H44.6204V1.1665H36.4551V26.8098H43.3866C45.2122 26.8098 46.8671 25.748 47.6296 24.1053L53.3773 11.6642H53.9594V26.8098H62.1245V1.1665H55.193C53.3673 1.1665 51.7124 2.2283 50.95 3.87108Z" fill="#006848"/>
<path id="Vector_2" d="M82.3609 0C84.7181 0 86.8549 0.901524 88.4701 2.38403C90.2755 4.0268 91.409 6.39082 91.409 9.02527C91.409 9.56614 91.3489 10.0971 91.2585 10.6179H76.0918C70.9555 10.6179 66.6021 7.25223 65.138 2.6044C65.1175 2.55431 65.1076 2.49421 65.0878 2.43411C65.0475 2.29388 65.0172 2.14362 64.9775 2.00339C64.827 1.35228 64.7267 0.691168 64.6865 0H82.3609Z" fill="url(#paint0_linear_8_2394)"/>
</g>
<defs>
<linearGradient id="paint0_linear_8_2394" x1="91.409" y1="33.2078" x2="64.8498" y2="33.2078" gradientUnits="userSpaceOnUse">
<stop stop-color="#1E5CD8"/>
<stop offset="1" stop-color="#02AFFF"/>
</linearGradient>
<clipPath id="clip0_8_2394">
<rect width="91.5833" height="28" fill="white" transform="translate(0.11731)"/>
</clipPath>
</defs>
</svg>
