<svg width="68" height="32" viewBox="0 0 68 32" fill="none" xmlns="http://www.w3.org/2000/svg">
<g id="sberpay 1" clip-path="url(#clip0_8_2397)">
<g id="Group">
<path id="Vector" d="M15.0776 0.134727C9.67675 0.718016 4.98884 3.9369 2.46126 8.81924C-1.77298 16.9205 1.92118 27.1172 10.3464 30.6601C13.695 32.0643 12.4636 31.9995 34.002 31.9995C49.1027 31.9995 53.8338 31.9347 54.7411 31.7187C60.8549 30.2929 65.5428 25.8858 67.0982 20.0529C67.6599 17.9358 67.7031 14.4577 67.2062 12.4054C66.2557 8.47359 63.8361 5.03867 60.466 2.77032C58.889 1.71177 57.5496 1.10687 55.3892 0.501982C53.7906 0.0483131 53.4233 0.0483131 35.1902 0.00510788C24.9719 -0.0164948 15.9201 0.0483131 15.0776 0.134727ZM19.9599 7.84709C22.0338 8.86244 22.0986 8.90565 21.5801 9.31611C20.3055 10.3315 20.3704 10.3099 18.9878 9.74818C14.5591 7.9335 9.80637 11.1092 9.80637 15.9051C9.80637 20.593 14.3863 23.7903 18.7717 22.1485C21.0185 21.3059 22.9844 18.6487 22.9844 16.4452C22.9844 15.8403 23.1356 15.6243 23.8917 15.0626C24.3886 14.6953 24.8854 14.3929 24.9935 14.3929C25.1015 14.3929 25.1663 15.2138 25.1015 16.294C25.0367 17.8278 24.8854 18.4543 24.3454 19.5993C23.5028 21.4355 21.8178 23.099 19.9815 23.9847C18.6853 24.5896 18.3613 24.6544 16.3954 24.6544C14.4295 24.6544 14.1054 24.5896 12.8092 23.9847C11.9667 23.5743 10.9297 22.8398 10.2384 22.1701C9.56873 21.4787 8.83422 20.4418 8.42376 19.5993C7.79726 18.2815 7.75406 18.0006 7.75406 15.9051C7.75406 13.8096 7.79726 13.5287 8.42376 12.211C9.17987 10.6123 10.8649 8.79763 12.2475 8.08473C13.8894 7.2422 14.8183 7.04777 16.7194 7.11258C18.2748 7.15579 18.7933 7.28541 19.9599 7.84709ZM38.9708 10.2883C40.1589 10.958 40.699 11.9301 40.699 13.4639C40.699 16.3156 39.0356 17.6334 35.363 17.6334H33.786V19.4912V21.3275L32.7706 21.2627L31.7337 21.1979L31.6689 15.3866L31.6257 9.59695L34.8013 9.68337C37.7178 9.74818 38.085 9.81299 38.9708 10.2883ZM24.0645 11.6061C24.2373 11.9949 24.2589 12.3406 24.1509 12.4486C24.0429 12.5566 22.2498 13.896 20.1759 15.4514L16.417 18.2599L15.5312 17.7198C15.056 17.4173 14.2998 16.9637 13.8678 16.7044C13.0685 16.2292 13.0469 16.2076 13.0469 14.8682V13.4855L13.8678 13.9824C14.2998 14.2633 15.0128 14.6953 15.4232 14.9762C15.8337 15.257 16.2441 15.473 16.3306 15.473C16.417 15.473 18.0156 14.3497 19.8735 12.9887C23.4812 10.3531 23.546 10.3315 24.0645 11.6061ZM47.0072 13.2263C48.1522 13.8096 48.2602 14.1985 48.2602 17.8926V21.3059H47.396C46.5751 21.3059 46.5319 21.2843 46.5319 20.593C46.5103 20.0097 46.4671 19.9449 46.2511 20.2258C45.3869 21.3275 43.421 21.6732 42.1897 20.9387C40.9151 20.1826 40.8286 17.8278 42.0384 16.9205C42.4921 16.5748 43.0754 16.4452 44.4796 16.3804C46.2295 16.294 46.3159 16.2508 46.3159 15.7755C46.3159 14.8898 45.7326 14.5441 44.3284 14.6521C43.313 14.7169 42.9458 14.8682 42.4273 15.365L41.7792 15.9915V14.7817C41.7792 14.004 41.8872 13.4855 42.0816 13.3127C42.8594 12.6862 45.819 12.643 47.0072 13.2263ZM52.4944 15.5811C53.0777 17.0501 53.6178 18.1951 53.6826 18.1086C53.769 18.0222 54.1795 16.8124 54.6115 15.4082L55.4109 12.8807H56.4694C57.0743 12.8807 57.5496 12.9239 57.5496 12.9671C57.5496 13.1831 54.0931 22.6453 53.7906 23.207C53.2937 24.1792 52.5808 24.5896 51.4575 24.5032L50.5285 24.4384L50.4637 23.423C50.3989 22.3861 50.3989 22.3861 50.9606 22.6021C51.4358 22.7749 51.6087 22.7317 52.0623 22.2781C52.3432 21.9972 52.5808 21.63 52.5808 21.4571C52.5808 21.2843 51.8463 19.3832 50.9606 17.2445C50.0748 15.1058 49.3403 13.2479 49.3403 13.1183C49.3403 12.9887 49.794 12.8807 50.3773 12.8807H51.4358L52.4944 15.5811Z" fill="#219F38"/>
<path id="Vector_2" d="M33.786 13.6367V15.689H35.1902C37.5666 15.689 38.5387 15.0409 38.5387 13.4422C38.5387 12.0812 37.5882 11.5843 35.0606 11.5843H33.786V13.6367Z" fill="#219F38"/>
<path id="Vector_3" d="M43.8099 17.8493C43.1834 18.0869 43.0538 18.5622 43.4211 19.1239C44.1124 20.096 46.3159 19.3615 46.3159 18.1517C46.3159 17.6765 46.2295 17.6333 45.3005 17.6549C44.7173 17.6549 44.0692 17.7413 43.8099 17.8493Z" fill="#219F38"/>
</g>
</g>
<defs>
<clipPath id="clip0_8_2397">
<rect width="66.8455" height="32" fill="white" transform="translate(0.700684)"/>
</clipPath>
</defs>
</svg>
