<svg width="86" height="28" viewBox="0 0 86 28" fill="none" xmlns="http://www.w3.org/2000/svg">
<g id="visa-blue 1" clip-path="url(#clip0_8_2387)">
<path id="Vector" fill-rule="evenodd" clip-rule="evenodd" d="M21.4534 27.78H14.0776L8.5466 6.05838C8.2841 5.05917 7.72667 4.17583 6.90673 3.7595C4.86048 2.71324 2.60565 1.88058 0.145844 1.46063V0.624348H12.0278C13.6676 0.624348 14.8975 1.88058 15.1025 3.33955L17.9723 19.0081L25.3445 0.624348H32.5154L21.4534 27.78ZM36.615 27.78H29.6492L35.3851 0.624348H42.351L36.615 27.78ZM51.3634 8.14923C51.5684 6.68663 52.7983 5.85037 54.2332 5.85037C56.488 5.64038 58.9441 6.06031 60.9939 7.10296L62.2242 1.25623C60.1743 0.419951 57.9192 0 55.873 0C49.1121 0 44.1925 3.76146 44.1925 8.98188C44.1925 12.9533 47.6772 15.0386 50.137 16.2948C52.7983 17.5474 53.8232 18.3837 53.6182 19.6363C53.6182 21.5153 51.5684 22.3515 49.5221 22.3515C47.0623 22.3515 44.6025 21.7252 42.3512 20.679L41.1213 26.5293C43.5811 27.572 46.2424 27.9919 48.7022 27.9919C56.283 28.1983 60.9939 24.4404 60.9939 18.8001C60.9939 11.6971 51.3634 11.2807 51.3634 8.14923ZM85.3726 27.78L79.8414 0.624348H73.9002C72.6705 0.624348 71.4408 1.46063 71.0308 2.71324L60.7886 27.78H67.9595L69.391 23.8121H78.2017L79.0213 27.78H85.3726ZM74.9251 7.93654L76.9714 18.171H71.2355L74.9251 7.93654Z" fill="#04539A"/>
</g>
<defs>
<clipPath id="clip0_8_2387">
<rect width="85.75" height="28" fill="white"/>
</clipPath>
</defs>
</svg>
